<mxfile host="app.diagrams.net" modified="2023-12-31T10:29:22.432Z" agent="Mozilla/5.0 (Windows NT 10.0; Win64; x64) AppleWebKit/537.36 (KHTML, like Gecko) Chrome/120.0.0.0 Safari/537.36" etag="MkXl3AH_8IgBovD12qw6" version="22.1.16" type="github">
  <diagram name="Page-1" id="7a6c530e-6e37-e111-ec74-82921da8cc10">
    <mxGraphModel dx="1687" dy="941" grid="1" gridSize="10" guides="1" tooltips="1" connect="1" arrows="1" fold="1" page="1" pageScale="1.5" pageWidth="1169" pageHeight="826" background="#184380" math="0" shadow="0">
      <root>
        <mxCell id="0" style=";html=1;" />
        <mxCell id="1" style=";html=1;" parent="0" />
        <mxCell id="23046e2b9bb16c14-116" value="MeuCliente" style="whiteSpace=wrap;html=1;rounded=1;shadow=0;strokeColor=none;strokeWidth=2;fillColor=#009BFF;fontSize=20;fontColor=#FFFFFF;align=center;arcSize=3;verticalAlign=top;spacingTop=4;movable=0;resizable=0;rotatable=0;deletable=0;editable=0;locked=1;connectable=0;" parent="1" vertex="1">
          <mxGeometry x="287" y="100" width="1180" height="667" as="geometry" />
        </mxCell>
        <mxCell id="23046e2b9bb16c14-84" value="" style="rounded=0;whiteSpace=wrap;html=1;shadow=0;strokeWidth=2;fillColor=#F04D22;fontSize=12;fontColor=#FFFFFF;align=center;strokeColor=none;arcSize=6;verticalAlign=top;" parent="1" vertex="1">
          <mxGeometry x="326" y="820" width="300" height="102" as="geometry" />
        </mxCell>
        <mxCell id="23046e2b9bb16c14-85" value="" style="rounded=0;whiteSpace=wrap;html=1;shadow=0;strokeWidth=2;fillColor=#8BC63E;fontSize=12;fontColor=#FFFFFF;align=center;strokeColor=none;arcSize=6;verticalAlign=top;" parent="1" vertex="1">
          <mxGeometry x="626" y="820" width="400" height="102" as="geometry" />
        </mxCell>
        <mxCell id="23046e2b9bb16c14-86" value="" style="rounded=0;whiteSpace=wrap;html=1;shadow=0;strokeWidth=2;fillColor=#0072BC;fontSize=12;fontColor=#FFFFFF;align=center;strokeColor=none;arcSize=3;verticalAlign=top;" parent="1" vertex="1">
          <mxGeometry x="1026" y="820" width="390" height="102" as="geometry" />
        </mxCell>
        <mxCell id="23046e2b9bb16c14-87" value="A" style="text;html=1;strokeColor=none;fillColor=none;align=center;verticalAlign=middle;whiteSpace=wrap;rounded=1;shadow=0;fontSize=30;fontColor=#FFFFFF;fontStyle=1" parent="1" vertex="1">
          <mxGeometry x="326" y="853" width="40" height="35" as="geometry" />
        </mxCell>
        <mxCell id="23046e2b9bb16c14-88" value="B" style="text;html=1;strokeColor=none;fillColor=none;align=center;verticalAlign=middle;whiteSpace=wrap;rounded=1;shadow=0;fontSize=30;fontColor=#FFFFFF;fontStyle=1" parent="1" vertex="1">
          <mxGeometry x="626" y="853" width="40" height="35" as="geometry" />
        </mxCell>
        <mxCell id="23046e2b9bb16c14-89" value="C" style="text;html=1;strokeColor=none;fillColor=none;align=center;verticalAlign=middle;whiteSpace=wrap;rounded=1;shadow=0;fontSize=30;fontColor=#FFFFFF;fontStyle=1" parent="1" vertex="1">
          <mxGeometry x="1026" y="853" width="40" height="35" as="geometry" />
        </mxCell>
        <mxCell id="23046e2b9bb16c14-90" value="Computer" style="verticalLabelPosition=top;html=1;verticalAlign=bottom;strokeColor=none;fillColor=#FFFFFF;shape=mxgraph.azure.computer;rounded=0;shadow=0;fontSize=10;fontColor=#FFFFFF;align=center;labelPosition=center;" parent="1" vertex="1">
          <mxGeometry x="393" y="860" width="50" height="45" as="geometry" />
        </mxCell>
        <mxCell id="23046e2b9bb16c14-91" value="VHD" style="shadow=0;html=1;strokeColor=none;fillColor=#FFFFFF;labelPosition=center;verticalLabelPosition=top;verticalAlign=bottom;shape=mxgraph.azure.vhd;rounded=0;fontSize=10;fontColor=#FFFFFF;align=center;" parent="1" vertex="1">
          <mxGeometry x="483" y="857" width="40" height="50" as="geometry" />
        </mxCell>
        <mxCell id="23046e2b9bb16c14-92" value="+" style="text;html=1;strokeColor=none;fillColor=none;align=center;verticalAlign=middle;whiteSpace=wrap;rounded=1;shadow=0;fontSize=30;fontColor=#FFFFFF;fontStyle=1" parent="1" vertex="1">
          <mxGeometry x="443" y="865" width="40" height="35" as="geometry" />
        </mxCell>
        <mxCell id="23046e2b9bb16c14-93" value="+" style="text;html=1;strokeColor=none;fillColor=none;align=center;verticalAlign=middle;whiteSpace=wrap;rounded=1;shadow=0;fontSize=30;fontColor=#FFFFFF;fontStyle=1" parent="1" vertex="1">
          <mxGeometry x="523" y="865" width="40" height="35" as="geometry" />
        </mxCell>
        <mxCell id="23046e2b9bb16c14-94" value="Server&lt;div&gt;Directory&lt;/div&gt;" style="shadow=0;html=1;strokeColor=none;shape=mxgraph.mscae.enterprise.server_directory;fillColor=#FFFFFF;rounded=0;fontSize=10;fontColor=#FFFFFF;align=center;verticalAlign=bottom;labelPosition=center;verticalLabelPosition=top;" parent="1" vertex="1">
          <mxGeometry x="563" y="858" width="36" height="50" as="geometry" />
        </mxCell>
        <mxCell id="23046e2b9bb16c14-95" value="VM Feature" style="shadow=0;html=1;strokeColor=none;fillColor=#FFFFFF;labelPosition=center;verticalLabelPosition=top;verticalAlign=bottom;shape=mxgraph.azure.virtual_machine_feature;rounded=0;fontSize=10;fontColor=#FFFFFF;align=center;" parent="1" vertex="1">
          <mxGeometry x="684" y="861" width="50" height="45" as="geometry" />
        </mxCell>
        <mxCell id="23046e2b9bb16c14-96" value="+" style="text;html=1;strokeColor=none;fillColor=none;align=center;verticalAlign=middle;whiteSpace=wrap;rounded=1;shadow=0;fontSize=30;fontColor=#FFFFFF;fontStyle=1" parent="1" vertex="1">
          <mxGeometry x="734" y="866" width="40" height="35" as="geometry" />
        </mxCell>
        <mxCell id="23046e2b9bb16c14-97" value="VHD" style="shadow=0;html=1;strokeColor=none;fillColor=#FFFFFF;labelPosition=center;verticalLabelPosition=top;verticalAlign=bottom;shape=mxgraph.azure.vhd;rounded=0;fontSize=10;fontColor=#FFFFFF;align=center;" parent="1" vertex="1">
          <mxGeometry x="774" y="858" width="40" height="50" as="geometry" />
        </mxCell>
        <mxCell id="23046e2b9bb16c14-98" value="3rd Party&lt;div&gt;Integration&lt;/div&gt;" style="shadow=0;html=1;strokeColor=none;fillColor=#FFFFFF;labelPosition=center;verticalLabelPosition=top;verticalAlign=bottom;shape=mxgraph.office.communications.3rd_party_integration;rounded=0;fontSize=10;fontColor=#FFFFFF;align=center;" parent="1" vertex="1">
          <mxGeometry x="854" y="856" width="54" height="55" as="geometry" />
        </mxCell>
        <mxCell id="23046e2b9bb16c14-99" value="+" style="text;html=1;strokeColor=none;fillColor=none;align=center;verticalAlign=middle;whiteSpace=wrap;rounded=1;shadow=0;fontSize=30;fontColor=#FFFFFF;fontStyle=1" parent="1" vertex="1">
          <mxGeometry x="814" y="866" width="40" height="35" as="geometry" />
        </mxCell>
        <mxCell id="23046e2b9bb16c14-100" value="+" style="text;html=1;strokeColor=none;fillColor=none;align=center;verticalAlign=middle;whiteSpace=wrap;rounded=1;shadow=0;fontSize=30;fontColor=#FFFFFF;fontStyle=1" parent="1" vertex="1">
          <mxGeometry x="908" y="866" width="40" height="35" as="geometry" />
        </mxCell>
        <mxCell id="23046e2b9bb16c14-101" value="Data Migration&lt;div&gt;Wizard&lt;/div&gt;" style="shadow=0;html=1;strokeColor=none;shape=mxgraph.mscae.intune.data_migration_wizard;fillColor=#FFFFFF;rounded=0;fontSize=10;fontColor=#FFFFFF;align=center;verticalAlign=bottom;labelPosition=center;verticalLabelPosition=top;" parent="1" vertex="1">
          <mxGeometry x="948" y="859" width="50" height="48" as="geometry" />
        </mxCell>
        <mxCell id="23046e2b9bb16c14-102" value="VM Feature" style="shadow=0;html=1;strokeColor=none;fillColor=#FFFFFF;labelPosition=center;verticalLabelPosition=top;verticalAlign=bottom;shape=mxgraph.azure.virtual_machine_feature;rounded=0;fontSize=10;fontColor=#FFFFFF;align=center;" parent="1" vertex="1">
          <mxGeometry x="1086" y="861" width="50" height="45" as="geometry" />
        </mxCell>
        <mxCell id="23046e2b9bb16c14-103" value="" style="line;strokeWidth=2;direction=south;html=1;rounded=0;shadow=0;fillColor=none;fontSize=30;fontColor=#FFFFFF;align=center;strokeColor=#FFFFFF;" parent="1" vertex="1">
          <mxGeometry x="366" y="820" width="10" height="102" as="geometry" />
        </mxCell>
        <mxCell id="23046e2b9bb16c14-104" value="" style="line;strokeWidth=2;direction=south;html=1;rounded=0;shadow=0;fillColor=none;fontSize=30;fontColor=#FFFFFF;align=center;strokeColor=#FFFFFF;" parent="1" vertex="1">
          <mxGeometry x="666" y="820" width="10" height="102" as="geometry" />
        </mxCell>
        <mxCell id="23046e2b9bb16c14-105" value="" style="line;strokeWidth=2;direction=south;html=1;rounded=0;shadow=0;fillColor=none;fontSize=30;fontColor=#FFFFFF;align=center;strokeColor=#FFFFFF;" parent="1" vertex="1">
          <mxGeometry x="1066" y="820" width="10" height="102" as="geometry" />
        </mxCell>
        <mxCell id="23046e2b9bb16c14-106" value="+" style="text;html=1;strokeColor=none;fillColor=none;align=center;verticalAlign=middle;whiteSpace=wrap;rounded=1;shadow=0;fontSize=30;fontColor=#FFFFFF;fontStyle=1" parent="1" vertex="1">
          <mxGeometry x="1136" y="866" width="40" height="35" as="geometry" />
        </mxCell>
        <mxCell id="23046e2b9bb16c14-107" value="Azure&lt;div&gt;Website&lt;/div&gt;" style="verticalLabelPosition=top;html=1;verticalAlign=bottom;strokeColor=none;fillColor=#FFFFFF;shape=mxgraph.azure.azure_website;rounded=0;shadow=0;fontSize=10;fontColor=#FFFFFF;align=center;labelPosition=center;" parent="1" vertex="1">
          <mxGeometry x="1176" y="858" width="50" height="50" as="geometry" />
        </mxCell>
        <mxCell id="23046e2b9bb16c14-108" value="+" style="text;html=1;strokeColor=none;fillColor=none;align=center;verticalAlign=middle;whiteSpace=wrap;rounded=1;shadow=0;fontSize=30;fontColor=#FFFFFF;fontStyle=1" parent="1" vertex="1">
          <mxGeometry x="1226" y="866" width="40" height="35" as="geometry" />
        </mxCell>
        <mxCell id="23046e2b9bb16c14-109" value="MySQL&lt;div&gt;Database&lt;/div&gt;" style="verticalLabelPosition=top;html=1;verticalAlign=bottom;strokeColor=none;fillColor=#FFFFFF;shape=mxgraph.azure.mysql_database;rounded=0;shadow=0;fontSize=10;fontColor=#FFFFFF;align=center;labelPosition=center;" parent="1" vertex="1">
          <mxGeometry x="1266" y="859" width="37.5" height="50" as="geometry" />
        </mxCell>
        <mxCell id="23046e2b9bb16c14-110" value="+" style="text;html=1;strokeColor=none;fillColor=none;align=center;verticalAlign=middle;whiteSpace=wrap;rounded=1;shadow=0;fontSize=30;fontColor=#FFFFFF;fontStyle=1" parent="1" vertex="1">
          <mxGeometry x="1304" y="866" width="40" height="35" as="geometry" />
        </mxCell>
        <mxCell id="23046e2b9bb16c14-111" value="Azure&lt;div&gt;Storage&lt;/div&gt;" style="shadow=0;html=1;strokeColor=none;labelPosition=center;verticalLabelPosition=top;verticalAlign=bottom;shape=mxgraph.mscae.cloud.azure_storage;fillColor=#FFFFFF;rounded=0;fontSize=10;fontColor=#FFFFFF;align=center;" parent="1" vertex="1">
          <mxGeometry x="1344" y="862" width="50" height="43" as="geometry" />
        </mxCell>
        <mxCell id="23046e2b9bb16c14-113" value="Tradução do CRM" style="text;strokeColor=none;fillColor=none;html=1;fontSize=24;fontStyle=1;verticalAlign=middle;align=center;rounded=0;shadow=0;fontColor=#FFFFFF;movable=0;resizable=0;rotatable=0;deletable=0;editable=0;locked=1;connectable=0;" parent="1" vertex="1">
          <mxGeometry x="120" y="40" width="1510" height="40" as="geometry" />
        </mxCell>
        <mxCell id="23046e2b9bb16c14-115" value="&lt;h1&gt;Heading&lt;/h1&gt;&lt;p&gt;Lorem ipsum dolor sit amet, consectetur adipisicing elit, sed do eiusmod tempor incididunt ut labore et dolore magna aliqua.&lt;/p&gt;" style="text;html=1;strokeColor=none;fillColor=none;spacing=5;spacingTop=-20;whiteSpace=wrap;overflow=hidden;rounded=0;shadow=0;fontSize=10;fontColor=#FFFFFF;align=left;" parent="1" vertex="1">
          <mxGeometry x="323" y="952" width="1041" height="70" as="geometry" />
        </mxCell>
        <mxCell id="MDC6gTbUR9rk1_IR8C2i-15" style="edgeStyle=orthogonalEdgeStyle;rounded=1;orthogonalLoop=1;jettySize=auto;html=1;exitX=1;exitY=0.5;exitDx=0;exitDy=0;exitPerimeter=0;strokeColor=#FFFFFF;strokeWidth=2;dashed=1;entryX=0.002;entryY=0.322;entryDx=0;entryDy=0;entryPerimeter=0;curved=0;flowAnimation=1;" edge="1" parent="1" source="23046e2b9bb16c14-68" target="23046e2b9bb16c14-27">
          <mxGeometry relative="1" as="geometry" />
        </mxCell>
        <mxCell id="MDC6gTbUR9rk1_IR8C2i-44" value="" style="shape=waypoint;sketch=0;size=6;pointerEvents=1;points=[];fillColor=none;resizable=0;rotatable=0;perimeter=centerPerimeter;snapToPoint=1;fontSize=11;verticalAlign=top;strokeColor=#FFFFFF;fontColor=#FFFFFF;rounded=1;shadow=0;strokeWidth=2;dashed=1;" vertex="1" parent="1">
          <mxGeometry x="774.75" y="846" width="20" height="20" as="geometry" />
        </mxCell>
        <mxCell id="23046e2b9bb16c14-57" value="" style="shadow=0;dashed=0;html=1;strokeColor=none;shape=mxgraph.mscae.enterprise.lock;fillColor=#FFFFFF;rounded=0;fontSize=12;fontColor=#000000;align=center;" parent="1" vertex="1">
          <mxGeometry x="1484" y="348.5" width="39" height="50" as="geometry" />
        </mxCell>
        <mxCell id="23046e2b9bb16c14-58" value="" style="shadow=0;dashed=0;html=1;strokeColor=none;labelPosition=center;verticalLabelPosition=bottom;verticalAlign=top;shape=mxgraph.mscae.cloud.azure_load_balancer_feature;fillColor=#FFFFFF;rounded=1;fontSize=12;fontColor=#000000;align=center;" parent="1" vertex="1">
          <mxGeometry x="1475" y="433.5" width="50" height="50" as="geometry" />
        </mxCell>
        <mxCell id="23046e2b9bb16c14-59" value="" style="verticalLabelPosition=bottom;html=1;verticalAlign=top;strokeColor=none;fillColor=#FFFFFF;shape=mxgraph.azure.virtual_machine;rounded=1;shadow=0;fontSize=12;fontColor=#000000;align=center;" parent="1" vertex="1">
          <mxGeometry x="1550" y="385.5" width="50" height="40" as="geometry" />
        </mxCell>
        <mxCell id="23046e2b9bb16c14-79" style="html=1;startArrow=none;startFill=0;startSize=10;endArrow=none;endFill=0;endSize=10;strokeWidth=3;fontSize=11;fontColor=#FFFFFF;strokeColor=#FFFFFF;rounded=0;exitX=0.796;exitY=0.241;exitPerimeter=0;" parent="1" source="23046e2b9bb16c14-58" target="23046e2b9bb16c14-59" edge="1">
          <mxGeometry relative="1" as="geometry" />
        </mxCell>
        <mxCell id="23046e2b9bb16c14-60" value="" style="verticalLabelPosition=bottom;html=1;verticalAlign=top;strokeColor=none;fillColor=#FFFFFF;shape=mxgraph.azure.virtual_machine;rounded=1;shadow=0;fontSize=12;fontColor=#000000;align=center;" parent="1" vertex="1">
          <mxGeometry x="1550" y="438.5" width="50" height="40" as="geometry" />
        </mxCell>
        <mxCell id="23046e2b9bb16c14-78" style="edgeStyle=orthogonalEdgeStyle;html=1;startArrow=none;startFill=0;startSize=10;endArrow=none;endFill=0;endSize=10;strokeWidth=3;fontSize=11;fontColor=#FFFFFF;strokeColor=#FFFFFF;rounded=0;" parent="1" source="23046e2b9bb16c14-58" target="23046e2b9bb16c14-60" edge="1">
          <mxGeometry relative="1" as="geometry" />
        </mxCell>
        <mxCell id="23046e2b9bb16c14-61" value="" style="verticalLabelPosition=bottom;html=1;verticalAlign=top;strokeColor=none;fillColor=#FFFFFF;shape=mxgraph.azure.virtual_machine;rounded=1;shadow=0;fontSize=12;fontColor=#000000;align=center;" parent="1" vertex="1">
          <mxGeometry x="1550" y="490.5" width="50" height="40" as="geometry" />
        </mxCell>
        <mxCell id="23046e2b9bb16c14-80" style="html=1;startArrow=none;startFill=0;startSize=10;endArrow=none;endFill=0;endSize=10;strokeWidth=3;fontSize=11;fontColor=#FFFFFF;strokeColor=#FFFFFF;rounded=0;exitX=0.789;exitY=0.767;exitPerimeter=0;" parent="1" source="23046e2b9bb16c14-58" target="23046e2b9bb16c14-61" edge="1">
          <mxGeometry relative="1" as="geometry" />
        </mxCell>
        <mxCell id="23046e2b9bb16c14-55" value="" style="rounded=1;whiteSpace=wrap;html=1;shadow=0;strokeWidth=2;fillColor=none;fontSize=12;fontColor=#000000;align=center;strokeColor=#FFFFFF;arcSize=9;" parent="1" vertex="1">
          <mxGeometry x="1470" y="560" width="160" height="241" as="geometry" />
        </mxCell>
        <mxCell id="MDC6gTbUR9rk1_IR8C2i-104" value="&lt;span&gt;Availability set&lt;/span&gt;" style="rounded=1;whiteSpace=wrap;html=1;shadow=0;strokeWidth=2;fillColor=none;fontSize=11;fontColor=#FFFFFF;align=center;strokeColor=#FFFFFF;dashed=1;verticalAlign=top;" vertex="1" parent="1">
          <mxGeometry x="1552" y="338" width="70" height="211" as="geometry" />
        </mxCell>
        <mxCell id="23046e2b9bb16c14-27" value="" style="rounded=1;whiteSpace=wrap;html=1;shadow=0;strokeWidth=2;fillColor=#8BC63E;fontSize=12;fontColor=#000000;align=center;strokeColor=none;arcSize=3;" parent="1" vertex="1">
          <mxGeometry x="513" y="247" width="567" height="503" as="geometry" />
        </mxCell>
        <mxCell id="MDC6gTbUR9rk1_IR8C2i-127" style="edgeStyle=orthogonalEdgeStyle;rounded=0;orthogonalLoop=1;jettySize=auto;html=1;exitX=0.5;exitY=1;exitDx=0;exitDy=0;entryX=0;entryY=0.25;entryDx=0;entryDy=0;fontFamily=Helvetica;fontSize=12;fontColor=default;flowAnimation=1;strokeColor=#FFFFFF;strokeWidth=2;" edge="1" parent="1" source="MDC6gTbUR9rk1_IR8C2i-41" target="MDC6gTbUR9rk1_IR8C2i-72">
          <mxGeometry relative="1" as="geometry">
            <Array as="points">
              <mxPoint x="740" y="716" />
              <mxPoint x="740" y="720" />
              <mxPoint x="1110" y="720" />
              <mxPoint x="1110" y="391" />
            </Array>
          </mxGeometry>
        </mxCell>
        <mxCell id="23046e2b9bb16c14-2" value="" style="rounded=1;whiteSpace=wrap;html=1;shadow=0;strokeWidth=2;fillColor=none;fontSize=12;fontColor=#000000;align=center;strokeColor=#FFFFFF;arcSize=10;" parent="1" vertex="1">
          <mxGeometry x="679" y="310" width="381" height="420" as="geometry" />
        </mxCell>
        <mxCell id="23046e2b9bb16c14-1" value="Update or Create" style="rounded=1;whiteSpace=wrap;html=1;shadow=0;strokeWidth=2;fillColor=none;fontSize=12;fontColor=#FDFCFF;align=center;strokeColor=#FFFFFF;horizontal=1;labelPosition=center;verticalLabelPosition=top;verticalAlign=bottom;spacingTop=0;" parent="1" vertex="1">
          <mxGeometry x="533" y="367" width="110" height="221" as="geometry" />
        </mxCell>
        <mxCell id="MDC6gTbUR9rk1_IR8C2i-2" value="Language and Terms" style="image;sketch=0;aspect=fixed;html=1;points=[];align=center;fontSize=12;image=img/lib/mscae/Search.svg;labelBackgroundColor=none;fontColor=#FFFFFF;" vertex="1" parent="1">
          <mxGeometry x="563" y="269" width="50" height="50" as="geometry" />
        </mxCell>
        <mxCell id="MDC6gTbUR9rk1_IR8C2i-16" value="" style="edgeStyle=orthogonalEdgeStyle;rounded=1;orthogonalLoop=1;jettySize=auto;html=1;exitX=1;exitY=0.5;exitDx=0;exitDy=0;entryX=0.003;entryY=0.085;entryDx=0;entryDy=0;strokeColor=#FFFFFF;curved=0;strokeWidth=2;dashed=1;flowAnimation=1;entryPerimeter=0;" edge="1" parent="1" source="23046e2b9bb16c14-1" target="23046e2b9bb16c14-2">
          <mxGeometry relative="1" as="geometry" />
        </mxCell>
        <mxCell id="MDC6gTbUR9rk1_IR8C2i-5" value="SQLite Structure" style="image;html=1;image=img/lib/clip_art/computers/Database_Add_128x128.png;labelBackgroundColor=none;fontColor=#FFFFFF;verticalAlign=top;labelPosition=center;verticalLabelPosition=bottom;align=center;" vertex="1" parent="1">
          <mxGeometry x="549" y="427.5" width="80" height="80" as="geometry" />
        </mxCell>
        <mxCell id="MDC6gTbUR9rk1_IR8C2i-6" value="" style="strokeColor=#dddddd;shadow=1;strokeWidth=1;rounded=1;absoluteArcSize=1;arcSize=40;" vertex="1" parent="1">
          <mxGeometry x="840" y="391" width="214" height="60" as="geometry" />
        </mxCell>
        <mxCell id="MDC6gTbUR9rk1_IR8C2i-7" value="&lt;font color=&quot;#000000&quot;&gt;MTS.TranslateTerms.Api&lt;br&gt;&lt;/font&gt;API" style="editableCssRules=.*;html=1;fontColor=#999999;shape=image;verticalLabelPosition=middle;verticalAlign=middle;labelPosition=right;align=left;spacingLeft=20;part=1;points=[];imageAspect=0;image=data:image/svg+xml,PHN2ZyB4bWxucz0iaHR0cDovL3d3dy53My5vcmcvMjAwMC9zdmciIHhtbG5zOnY9Imh0dHBzOi8vdmVjdGEuaW8vbmFubyIgd2lkdGg9IjIwLjAxMDAwMDIyODg4MTgzNiIgaGVpZ2h0PSI5LjQ5NDcyOTA0MjA1MzIyMyIgdmlld0JveD0iMC4wMDAyMDYzODQ1NjA0NDI1Mjk2MiAwIDIwLjAxMDAwMDIyODg4MTgzNiA5LjQ5NDcyOTA0MjA1MzIyMyI+JiN4YTsJPHN0eWxlIHR5cGU9InRleHQvY3NzIj4mI3hhOwkuc3Qwe2ZpbGw6IzQyODVmNDt9JiN4YTsJLnN0MXtmaWxsOiM2NjlkZjY7fSYjeGE7CS5zdDJ7ZmlsbDojYWVjYmZhO30mI3hhOwk8L3N0eWxlPiYjeGE7CTxwYXRoIGNsYXNzPSJzdDAiIGQ9Ik0xLjQ3NiA4LjQzYTQuMzEgNC4zMSAwIDEgMSA2LjA3LS40IDMuNjggMy42OCAwIDAgMS0uMzkuNCA0LjMyIDQuMzIgMCAwIDEtNS42OCAwem01LjItNS4yYTMuMDcgMy4wNyAwIDEgMC0uNCA0LjMzIDMgMyAwIDAgMCAuNC0uNCAzLjA3IDMuMDcgMCAwIDAgMC0zLjkzem02LjE5IDUuMmE0LjMxIDQuMzEgMCAxIDEgNi4wNy0uNCAzLjc4IDMuNzggMCAwIDEtLjQuNCA0LjMxIDQuMzEgMCAwIDEtNS42NyAwem01LjItNS4yYTMuMDcgMy4wNyAwIDEgMC0uNCA0LjMzIDMgMyAwIDAgMCAuNC0uNCAzLjA4IDMuMDggMCAwIDAgMC0zLjkzeiIvPiYjeGE7CTxnIGNsYXNzPSJzdDEiPiYjeGE7CQk8Y2lyY2xlIGN4PSI0LjMxNiIgY3k9IjUuMTkiIHI9IjEuNjkiLz4mI3hhOwkJPGNpcmNsZSBjeD0iMTUuNjk2IiBjeT0iNS4xOSIgcj0iMS42OSIvPiYjeGE7CTwvZz4mI3hhOwk8cGF0aCBjbGFzcz0ic3QyIiBkPSJNMTIuMzk2LjU2YS4zMS4zMSAwIDAgMC0uMTgtLjU2aC00LjQyYS4zMS4zMSAwIDAgMC0uMTguNTYgNS43MyA1LjczIDAgMCAxIDIuMTMgMi45Mi4yOC4yOCAwIDAgMCAuMzYuMTYuMjkuMjkgMCAwIDAgLjE3LS4xNyA1LjY3IDUuNjcgMCAwIDEgMi4xMi0yLjkxeiIvPiYjeGE7PC9zdmc+;" vertex="1" parent="MDC6gTbUR9rk1_IR8C2i-6">
          <mxGeometry width="30" height="14" relative="1" as="geometry">
            <mxPoint x="15" y="23" as="offset" />
          </mxGeometry>
        </mxCell>
        <mxCell id="MDC6gTbUR9rk1_IR8C2i-19" value="" style="group" vertex="1" connectable="0" parent="1">
          <mxGeometry x="692.75" y="489.5" width="70" height="191" as="geometry" />
        </mxCell>
        <mxCell id="MDC6gTbUR9rk1_IR8C2i-9" value="&lt;span&gt;&lt;font style=&quot;font-size: 10px;&quot;&gt;Get Avaliable Languages&lt;/font&gt;&lt;br&gt;&lt;/span&gt;" style="rounded=1;whiteSpace=wrap;html=1;shadow=0;strokeWidth=2;fillColor=none;fontSize=11;fontColor=#FFFFFF;align=center;strokeColor=#FFFFFF;dashed=1;verticalAlign=top;" vertex="1" parent="MDC6gTbUR9rk1_IR8C2i-19">
          <mxGeometry width="70" height="191" as="geometry" />
        </mxCell>
        <mxCell id="MDC6gTbUR9rk1_IR8C2i-10" value="Connect" style="sketch=0;pointerEvents=1;shadow=0;dashed=0;html=1;strokeColor=none;fillColor=#DF8C42;labelPosition=center;verticalLabelPosition=bottom;verticalAlign=top;align=center;outlineConnect=0;shape=mxgraph.veeam2.restful_api;fontSize=10;fontColor=#FFFFFF;" vertex="1" parent="MDC6gTbUR9rk1_IR8C2i-19">
          <mxGeometry x="18" y="41" width="34" height="34" as="geometry" />
        </mxCell>
        <mxCell id="MDC6gTbUR9rk1_IR8C2i-17" value="Sync Data" style="verticalLabelPosition=bottom;html=1;verticalAlign=top;align=center;strokeColor=none;fillColor=#FFFFFF;shape=mxgraph.azure.sql_datasync;fontColor=#FFFFFF;" vertex="1" parent="MDC6gTbUR9rk1_IR8C2i-19">
          <mxGeometry x="16.25" y="111" width="37.5" height="50" as="geometry" />
        </mxCell>
        <mxCell id="MDC6gTbUR9rk1_IR8C2i-18" value="" style="edgeStyle=orthogonalEdgeStyle;rounded=0;orthogonalLoop=1;jettySize=auto;html=1;strokeColor=#FFFFFF;dashed=1;endArrow=oval;endFill=1;" edge="1" parent="MDC6gTbUR9rk1_IR8C2i-19" source="MDC6gTbUR9rk1_IR8C2i-10" target="MDC6gTbUR9rk1_IR8C2i-17">
          <mxGeometry relative="1" as="geometry" />
        </mxCell>
        <mxCell id="MDC6gTbUR9rk1_IR8C2i-20" value="" style="group" vertex="1" connectable="0" parent="1">
          <mxGeometry x="779.75" y="489.5" width="70" height="191" as="geometry" />
        </mxCell>
        <mxCell id="MDC6gTbUR9rk1_IR8C2i-21" value="&lt;span style=&quot;font-size: 10px;&quot;&gt;Get Principal&lt;br&gt;Term List&lt;br&gt;&lt;/span&gt;" style="rounded=1;whiteSpace=wrap;html=1;shadow=0;strokeWidth=2;fillColor=none;fontSize=11;fontColor=#FFFFFF;align=center;strokeColor=#FFFFFF;dashed=1;verticalAlign=top;" vertex="1" parent="MDC6gTbUR9rk1_IR8C2i-20">
          <mxGeometry width="70" height="191" as="geometry" />
        </mxCell>
        <mxCell id="MDC6gTbUR9rk1_IR8C2i-22" value="Connect" style="sketch=0;pointerEvents=1;shadow=0;dashed=0;html=1;strokeColor=none;fillColor=#DF8C42;labelPosition=center;verticalLabelPosition=bottom;verticalAlign=top;align=center;outlineConnect=0;shape=mxgraph.veeam2.restful_api;fontSize=10;fontColor=#FFFFFF;" vertex="1" parent="MDC6gTbUR9rk1_IR8C2i-20">
          <mxGeometry x="18" y="41" width="34" height="34" as="geometry" />
        </mxCell>
        <mxCell id="MDC6gTbUR9rk1_IR8C2i-23" value="Sync Data" style="verticalLabelPosition=bottom;html=1;verticalAlign=top;align=center;strokeColor=none;fillColor=#FFFFFF;shape=mxgraph.azure.sql_datasync;fontColor=#FFFFFF;" vertex="1" parent="MDC6gTbUR9rk1_IR8C2i-20">
          <mxGeometry x="16.25" y="111" width="37.5" height="50" as="geometry" />
        </mxCell>
        <mxCell id="MDC6gTbUR9rk1_IR8C2i-24" value="" style="edgeStyle=orthogonalEdgeStyle;rounded=0;orthogonalLoop=1;jettySize=auto;html=1;strokeColor=#FFFFFF;dashed=1;endArrow=oval;endFill=1;" edge="1" parent="MDC6gTbUR9rk1_IR8C2i-20" source="MDC6gTbUR9rk1_IR8C2i-22" target="MDC6gTbUR9rk1_IR8C2i-23">
          <mxGeometry relative="1" as="geometry" />
        </mxCell>
        <mxCell id="MDC6gTbUR9rk1_IR8C2i-25" value="" style="group" vertex="1" connectable="0" parent="1">
          <mxGeometry x="934" y="490" width="70" height="196" as="geometry" />
        </mxCell>
        <mxCell id="MDC6gTbUR9rk1_IR8C2i-26" value="&lt;span style=&quot;font-size: 10px;&quot;&gt;Get Secondary&lt;br&gt;Term List&lt;br&gt;&lt;/span&gt;" style="rounded=1;whiteSpace=wrap;html=1;shadow=0;strokeWidth=2;fillColor=none;fontSize=11;fontColor=#FFFFFF;align=center;strokeColor=#FFFFFF;dashed=1;verticalAlign=top;" vertex="1" parent="MDC6gTbUR9rk1_IR8C2i-25">
          <mxGeometry width="70" height="196" as="geometry" />
        </mxCell>
        <mxCell id="MDC6gTbUR9rk1_IR8C2i-27" value="Connect" style="sketch=0;pointerEvents=1;shadow=0;dashed=0;html=1;strokeColor=none;fillColor=#DF8C42;labelPosition=center;verticalLabelPosition=bottom;verticalAlign=top;align=center;outlineConnect=0;shape=mxgraph.veeam2.restful_api;fontSize=10;fontColor=#FFFFFF;" vertex="1" parent="MDC6gTbUR9rk1_IR8C2i-25">
          <mxGeometry x="18" y="42.07329842931937" width="34" height="34.890052356020945" as="geometry" />
        </mxCell>
        <mxCell id="MDC6gTbUR9rk1_IR8C2i-28" value="Sync Data" style="verticalLabelPosition=bottom;html=1;verticalAlign=top;align=center;strokeColor=none;fillColor=#FFFFFF;shape=mxgraph.azure.sql_datasync;fontColor=#FFFFFF;" vertex="1" parent="MDC6gTbUR9rk1_IR8C2i-25">
          <mxGeometry x="16.25" y="113.90575916230368" width="37.5" height="51.30890052356022" as="geometry" />
        </mxCell>
        <mxCell id="MDC6gTbUR9rk1_IR8C2i-29" value="" style="edgeStyle=orthogonalEdgeStyle;rounded=0;orthogonalLoop=1;jettySize=auto;html=1;strokeColor=#FFFFFF;dashed=1;endArrow=oval;endFill=1;" edge="1" parent="MDC6gTbUR9rk1_IR8C2i-25" source="MDC6gTbUR9rk1_IR8C2i-27" target="MDC6gTbUR9rk1_IR8C2i-28">
          <mxGeometry relative="1" as="geometry" />
        </mxCell>
        <mxCell id="MDC6gTbUR9rk1_IR8C2i-124" style="edgeStyle=orthogonalEdgeStyle;rounded=0;orthogonalLoop=1;jettySize=auto;html=1;entryX=0.5;entryY=0;entryDx=0;entryDy=0;fontFamily=Helvetica;fontSize=12;fontColor=default;strokeColor=#FFFFFF;flowAnimation=1;strokeWidth=2;" edge="1" parent="1" source="MDC6gTbUR9rk1_IR8C2i-34" target="MDC6gTbUR9rk1_IR8C2i-9">
          <mxGeometry relative="1" as="geometry" />
        </mxCell>
        <mxCell id="MDC6gTbUR9rk1_IR8C2i-125" style="edgeStyle=orthogonalEdgeStyle;rounded=0;orthogonalLoop=1;jettySize=auto;html=1;entryX=0.5;entryY=0;entryDx=0;entryDy=0;fontFamily=Helvetica;fontSize=12;fontColor=default;strokeColor=#FFFFFF;flowAnimation=1;strokeWidth=2;" edge="1" parent="1" source="MDC6gTbUR9rk1_IR8C2i-34" target="MDC6gTbUR9rk1_IR8C2i-21">
          <mxGeometry relative="1" as="geometry" />
        </mxCell>
        <mxCell id="MDC6gTbUR9rk1_IR8C2i-136" style="edgeStyle=orthogonalEdgeStyle;rounded=0;orthogonalLoop=1;jettySize=auto;html=1;entryX=0.005;entryY=0.307;entryDx=0;entryDy=0;fontFamily=Helvetica;fontSize=12;fontColor=default;exitX=1;exitY=0.25;exitDx=0;exitDy=0;entryPerimeter=0;strokeColor=#FFFFFF;flowAnimation=1;" edge="1" parent="1" source="MDC6gTbUR9rk1_IR8C2i-34" target="MDC6gTbUR9rk1_IR8C2i-6">
          <mxGeometry relative="1" as="geometry" />
        </mxCell>
        <mxCell id="MDC6gTbUR9rk1_IR8C2i-34" value="Request data from API and insert or sync with SQLite database" style="whiteSpace=wrap;html=1;strokeColor=#dddddd;shadow=0;strokeWidth=1;rounded=0;arcSize=40;fontSize=10;" vertex="1" parent="1">
          <mxGeometry x="701.75" y="395.5" width="120" height="52" as="geometry" />
        </mxCell>
        <mxCell id="MDC6gTbUR9rk1_IR8C2i-52" style="edgeStyle=orthogonalEdgeStyle;rounded=0;orthogonalLoop=1;jettySize=auto;html=1;strokeColor=#FDFCFF;flowAnimation=1;" edge="1" parent="1" source="MDC6gTbUR9rk1_IR8C2i-39" target="MDC6gTbUR9rk1_IR8C2i-26">
          <mxGeometry relative="1" as="geometry">
            <Array as="points">
              <mxPoint x="940" y="600" />
              <mxPoint x="940" y="600" />
            </Array>
          </mxGeometry>
        </mxCell>
        <mxCell id="MDC6gTbUR9rk1_IR8C2i-39" value="Continue (async) with get and sync secondary term list" style="whiteSpace=wrap;html=1;strokeColor=#dddddd;shadow=0;strokeWidth=1;rounded=0;arcSize=40;fontSize=10;rotation=-90;" vertex="1" parent="1">
          <mxGeometry x="792.86" y="571.39" width="204.05" height="35" as="geometry" />
        </mxCell>
        <mxCell id="MDC6gTbUR9rk1_IR8C2i-45" value="" style="rounded=0;orthogonalLoop=1;jettySize=auto;html=1;entryX=0.75;entryY=0;entryDx=0;entryDy=0;strokeColor=#FFFFFF;flowAnimation=1;" edge="1" parent="1" target="MDC6gTbUR9rk1_IR8C2i-41">
          <mxGeometry relative="1" as="geometry">
            <mxPoint x="810" y="680" as="sourcePoint" />
          </mxGeometry>
        </mxCell>
        <mxCell id="MDC6gTbUR9rk1_IR8C2i-49" style="rounded=0;orthogonalLoop=1;jettySize=auto;html=1;entryX=0.25;entryY=0;entryDx=0;entryDy=0;strokeColor=#FFFFFF;flowAnimation=1;" edge="1" parent="1" source="MDC6gTbUR9rk1_IR8C2i-9" target="MDC6gTbUR9rk1_IR8C2i-41">
          <mxGeometry relative="1" as="geometry" />
        </mxCell>
        <mxCell id="MDC6gTbUR9rk1_IR8C2i-50" style="edgeStyle=orthogonalEdgeStyle;rounded=0;orthogonalLoop=1;jettySize=auto;html=1;entryX=0.498;entryY=0.035;entryDx=0;entryDy=0;strokeColor=#FFFFFF;entryPerimeter=0;flowAnimation=1;" edge="1" parent="1" source="MDC6gTbUR9rk1_IR8C2i-41" target="MDC6gTbUR9rk1_IR8C2i-39">
          <mxGeometry relative="1" as="geometry">
            <Array as="points">
              <mxPoint x="860" y="706" />
              <mxPoint x="860" y="589" />
              <mxPoint x="870" y="589" />
            </Array>
          </mxGeometry>
        </mxCell>
        <mxCell id="MDC6gTbUR9rk1_IR8C2i-54" value="" style="group;absoluteArcSize=0;" vertex="1" connectable="0" parent="1">
          <mxGeometry x="689.75" y="696" width="160" height="20" as="geometry" />
        </mxCell>
        <mxCell id="MDC6gTbUR9rk1_IR8C2i-41" value="Finish all sync data" style="whiteSpace=wrap;html=1;strokeColor=#dddddd;shadow=0;strokeWidth=1;rounded=0;arcSize=40;fontSize=10;" vertex="1" parent="MDC6gTbUR9rk1_IR8C2i-54">
          <mxGeometry width="160" height="20" as="geometry" />
        </mxCell>
        <mxCell id="MDC6gTbUR9rk1_IR8C2i-42" value="" style="sketch=0;html=1;aspect=fixed;strokeColor=none;shadow=0;fillColor=#3B8DF1;verticalAlign=top;labelPosition=center;verticalLabelPosition=bottom;shape=mxgraph.gcp2.loading" vertex="1" parent="MDC6gTbUR9rk1_IR8C2i-54">
          <mxGeometry x="14.25" y="2" width="16" height="16" as="geometry" />
        </mxCell>
        <mxCell id="23046e2b9bb16c14-64" value="CRM Web 2.0" style="rounded=1;whiteSpace=wrap;html=1;shadow=0;strokeWidth=2;fillColor=#0072BC;fontSize=12;fontColor=#FFFFFF;align=center;strokeColor=none;arcSize=3;verticalAlign=top;" parent="1" vertex="1">
          <mxGeometry x="310" y="360" width="150" height="211" as="geometry" />
        </mxCell>
        <mxCell id="MDC6gTbUR9rk1_IR8C2i-121" value="" style="edgeStyle=orthogonalEdgeStyle;rounded=0;orthogonalLoop=1;jettySize=auto;html=1;fontFamily=Helvetica;fontSize=12;fontColor=default;exitX=0;exitY=0.5;exitDx=0;exitDy=0;exitPerimeter=0;entryX=0;entryY=0.5;entryDx=0;entryDy=0;entryPerimeter=0;endArrow=none;endFill=0;flowAnimation=1;strokeColor=#FFFFFF;dashed=1;strokeWidth=2;" edge="1" parent="1" source="23046e2b9bb16c14-67" target="23046e2b9bb16c14-68">
          <mxGeometry relative="1" as="geometry" />
        </mxCell>
        <mxCell id="23046e2b9bb16c14-67" value="" style="shadow=0;dashed=0;html=1;strokeColor=none;shape=mxgraph.mscae.enterprise.web;fillColor=#FFFFFF;rounded=1;fontSize=11;fontColor=#FFFFFF;align=center;" parent="1" vertex="1">
          <mxGeometry x="347" y="396" width="50" height="50" as="geometry" />
        </mxCell>
        <mxCell id="23046e2b9bb16c14-68" value="App Module" style="shadow=0;dashed=0;html=1;strokeColor=none;shape=mxgraph.mscae.enterprise.gateway;fillColor=#FFFFFF;rounded=0;fontSize=12;fontColor=#FFFFFF;align=center;labelPosition=center;verticalLabelPosition=top;verticalAlign=bottom;" parent="1" vertex="1">
          <mxGeometry x="347" y="508" width="50" height="50" as="geometry" />
        </mxCell>
        <mxCell id="MDC6gTbUR9rk1_IR8C2i-135" style="edgeStyle=orthogonalEdgeStyle;rounded=0;orthogonalLoop=1;jettySize=auto;html=1;entryX=0.5;entryY=0;entryDx=0;entryDy=0;fontFamily=Helvetica;fontSize=12;fontColor=default;exitX=0.177;exitY=1.009;exitDx=0;exitDy=0;exitPerimeter=0;strokeColor=#FFFFFF;flowAnimation=1;" edge="1" parent="1" source="MDC6gTbUR9rk1_IR8C2i-131" target="MDC6gTbUR9rk1_IR8C2i-34">
          <mxGeometry relative="1" as="geometry" />
        </mxCell>
        <mxCell id="MDC6gTbUR9rk1_IR8C2i-131" value="" style="whiteSpace=wrap;html=1;pointerEvents=0;align=center;verticalAlign=top;fontFamily=Helvetica;fontSize=12;fillColor=#dae8fc;strokeColor=#6c8ebf;" vertex="1" parent="1">
          <mxGeometry x="699.75" y="319" width="340.25" height="55.5" as="geometry" />
        </mxCell>
        <mxCell id="MDC6gTbUR9rk1_IR8C2i-128" value="" style="sketch=0;outlineConnect=0;fontColor=#232F3E;gradientColor=none;fillColor=#3399FF;strokeColor=none;dashed=0;verticalLabelPosition=bottom;verticalAlign=top;align=center;html=1;fontSize=12;fontStyle=0;aspect=fixed;pointerEvents=1;shape=mxgraph.aws4.generic_application;fontFamily=Helvetica;" vertex="1" parent="1">
          <mxGeometry x="709" y="326.75" width="40" height="40" as="geometry" />
        </mxCell>
        <mxCell id="MDC6gTbUR9rk1_IR8C2i-133" value="CRM Web 2.0" style="text;strokeColor=none;align=left;fillColor=none;html=1;verticalAlign=middle;whiteSpace=wrap;rounded=0;fontSize=12;fontFamily=Helvetica;fontColor=default;labelPosition=center;verticalLabelPosition=middle;" vertex="1" parent="1">
          <mxGeometry x="759.5" y="326" width="278.5" height="23" as="geometry" />
        </mxCell>
        <mxCell id="MDC6gTbUR9rk1_IR8C2i-134" value="On user access" style="text;strokeColor=none;align=left;fillColor=none;html=1;verticalAlign=middle;whiteSpace=wrap;rounded=0;fontSize=12;fontFamily=Helvetica;fontColor=#5C5C5C;labelPosition=center;verticalLabelPosition=middle;" vertex="1" parent="1">
          <mxGeometry x="759.5" y="343.75" width="278.5" height="23" as="geometry" />
        </mxCell>
        <mxCell id="MDC6gTbUR9rk1_IR8C2i-137" style="edgeStyle=orthogonalEdgeStyle;rounded=0;orthogonalLoop=1;jettySize=auto;html=1;entryX=0.992;entryY=0.483;entryDx=0;entryDy=0;entryPerimeter=0;fontFamily=Helvetica;fontSize=12;fontColor=default;strokeColor=#FFFFFF;flowAnimation=1;" edge="1" parent="1" source="MDC6gTbUR9rk1_IR8C2i-6" target="MDC6gTbUR9rk1_IR8C2i-34">
          <mxGeometry relative="1" as="geometry" />
        </mxCell>
        <mxCell id="MDC6gTbUR9rk1_IR8C2i-140" value="" style="group" vertex="1" connectable="0" parent="1">
          <mxGeometry x="1150" y="280" width="284" height="443" as="geometry" />
        </mxCell>
        <mxCell id="MDC6gTbUR9rk1_IR8C2i-99" value="" style="group;movable=1;resizable=1;rotatable=1;deletable=1;editable=1;locked=0;connectable=1;" vertex="1" connectable="0" parent="MDC6gTbUR9rk1_IR8C2i-140">
          <mxGeometry width="284" height="443" as="geometry" />
        </mxCell>
        <mxCell id="MDC6gTbUR9rk1_IR8C2i-72" value="" style="rounded=1;whiteSpace=wrap;html=1;shadow=0;strokeWidth=2;fillColor=default;fontSize=12;fontColor=#000000;align=center;strokeColor=#FF33FF;arcSize=9;perimeterSpacing=0;movable=1;resizable=1;rotatable=1;deletable=1;editable=1;locked=0;connectable=1;" vertex="1" parent="MDC6gTbUR9rk1_IR8C2i-99">
          <mxGeometry width="284" height="443" as="geometry" />
        </mxCell>
        <mxCell id="MDC6gTbUR9rk1_IR8C2i-56" value="" style="shape=image;verticalLabelPosition=bottom;labelBackgroundColor=default;verticalAlign=top;aspect=fixed;imageAspect=0;image=data:image/png,iVBORw0KGgoAAAANSUhEUgAAAbIAAAD8CAYAAAASViG0AAAgAElEQVR4Ae19CdQdVZUuTkSmRkURB8Th4aNZ2DTLBY/Fa1EfoDYzpgUBmSODaRpBBCLGGMB0gI5hCGklJBimBgJKAkQFkZDkJ5MJEYhJiBkNgRAy/ENGkpy3vhvrpqruPnVPVZ1T41dr3VX31q3aZ+9v7zrfmc8uigcRIAKFQ6Cnp0ftsssugU/hlKRCRKAgCOxSED2oBhEgAj4Exo4dGyAxkBoPIkAEZAT4dsi48CoRyBWBcG3ssccey1UfJk4EiowAiazI3qFutUUgTGRr166tLRY0nAi0Q4BE1g4h/k8EMkZg8eLFbFbMGHMmV24ESGTl9h+1ryACI0eODBDZgAEDKmglTSIC9hAgkdnDkpKIgBUEzjrrrACRTZw40YpcCiECVUWARFZVz9Ku0iIQ7h8rrSFUnAhkhACJLCOgmQwRMEFgxowZgdrYaaedZvIY7yECtUaARFZr99P4oiEwePDgAJENGzasaCpSHyJQOARIZIVzCRWqMwLHHXdcgMjmzp1bZzhoOxEwQoBEZgQTbyIC7hHYvHlzgMS4mod7zJlCNRAgkTn244EzuhU/9cQgbmiNHz8+QGSXXHJJXBG8nwjUEgESmWO37zq5U/FTPwxQeIl7/OAHPwgQ2aOPPhpXBO8nArVEgETm2O0ksfqRGHx+47JNsSPrsMMOCxDZ6tWrY8vgA0SgjgiQyBx7nURWTyKLG1bLly8PkNhRRx0VVwTvJwK1RYBE5tj1JLL6EVmSZsXRo0cHiKx///6OI5PiiUB1ECCROfYliax+RJakWfG8884LENmECRMcRybFE4HqIEAic+zLKCI79pUexU/1MEgSUp/85CebRLbXXnslEcFniEBtESCROXZ9FJE5TpriS4LASy+91CQxzB079dRTS6I51SQCxUCARObYDyQyxwBXQPyQIUMCRHbnnXdWwCqaQASyQ4BE5hhrEpljgCsg/vjjjw8Q2Zw5cypgFU0gAtkhQCJzjDWJzDHAJRe/bds21atXryaRffazny25RVSfCGSPAInMMeYkMscAl1z8s88+2yQx9I9997vfLblFVJ8IZI8Aicwx5iQyxwCXXPx1110XILKHH3645BZRfSKQPQIkMseYk8gcA1xy8YcffniAyFatWlVyi6g+EcgeARKZY8xJZI4BLrH4lStXBkjsyCOPLLE1VJ0I5IcAicwx9iQyxwCXWPxDDz0UILLrr7++xNZQdSKQHwIkMsfYk8gcA1xi8RdddFGAyP74xz+W2BqqTgTyQ4BE5hh7EpljgEss/jOf+UyTyPbYY48SW0LViUC+CJDIHONPInMMcEnFv/rqq00Sw7D7k08+uaSWUG0ikD8CJDLHPiCROQa4pOJvv/32AJHhNw8iQASSIUAiS4ab8VMkMmOoanXjKaecEiAy1NBMji0vvKHe7jWKn4JisObzj5q4kfdYRoBEZhnQsDgSWRgR/gYCe+65Z5PI0Fdmeqy/8SWSWEFJDAUMEplpJNu9j0RmF88WaVUnspVbtitsJCl9Ordub8GDF5R6/vnnmySG/rE+ffoYw4KMkjWy4tZISWTGoWz1RhKZVThbhVWdyL49b4MSbZy0Tl2xaFMrILyi+vfvHyAyzCczObYt6SaJFbg2xhqZSRS7uYdE5gbXplQxk5/c2cj8mzeV+Mv5r+mJ7IeLSWSSa4866qgAkWGFD5ODzYrFrYl5tWTWyEwi2f49JDL7mAYkksgCcNT+x+rVqwMkdsQRRxhj0t1nImtkrJEZx0udbiSROfY2icwxwCUTP2bMmACR9evXz9gCEBk/+WPQedx4bYGCNTLjcLZ6I4nMKpytwmpLZJM71Q8XbWwFpOZXLr300gCR/eEPf6g5IuUzP2oKBIksH3+SyBzjXnUiO3HOerXrpB19fkFb16l+7CNria4DDzywSWS77bZby/+8UHwESGTF8xGJzLFPgpl7MMN3nHQm4s+et14ctbjvlC41YCkHe/idMH/+/CaJYdj9iSee6P+b30uCAImseI4ikTn2SdWJ7IRXZSL7yJQuNfhvmx2jWy7xw4cPDxDZ0KFDy2UAtW0gQCIrXiCQyBz7pOpE9i+ze9Suk7taamWfnt6l7nydROYPr969eweI7OWXX/b/ze8lQYBEVjxHkcgc+6TqRHakhsg+Na1L/epNEpk/vD74wQ82ieyAAw7w/8XvJUKARFY8Z5HIHPuk6kR2yCy5Rva5Gd1q7NtbHKNbHvGTJ09ukhj6xy688MLyKE9NAwiQyAJwFOIHicyxG6pOZB+d2qV27QgOYoHNn5zWrSZ3bnWMbnnEDxw4MEBkDz74YHmUp6YBBEhkATgK8YNE5tgNVSey9/99ua2wnSC4BRu3OUa3POK//OUvB4jszTffLI/y1DSAAIksAEchfpDIHLshnMH7fztO2rn41zdtU3u/2Fobg417dHSqbq5+3/BBV1dXgMQOP/xw575hAu4QIJG5wzapZBJZUuQMn/MTV/i7oYjUt81Zv1V9dnqX2qPD7mf3ji71AQ2R9WqQmd30PP0PntmtFpaotveb3/wmQGTXXnttap9SQH4IkMjyw16XMolMh4yl62Hy8v+2lERbMSCyj0xFzWmdo49UK3OV1jr1oSldpSKyyy+/PEBkzzzzTFuf8YbiIkAiK55vSGSOfeInrvB3x0k3xYPI9m0QmUQ45bu2T8mI7OCDD24SWa9evdS2bew7bAZnCb+QyIrnNBKZY5+Eycv/23HSTfEksiYUmX9ZuHBhk8Qw7P7444/PXAcmaBcBEpldPG1II5HZQDFChp+4wt8jHrP6F4nMKpyxhI0YMSJAZEOGDIn1PG8uHgIksuL5hETm2Cdh8vL/dpx0U3yjj2xK545V6rFSvc2PZvh9w06b6fhkfejF8vSRffvb3w4Q2ezZs5t+4ZdyIkAiK57fSGSOfeInrvB3x0k3xYPI/nFGl/qHDnufPTuwviIGdET3sWGkoc10IevzfyoPkX3kIx9pEtn+++/f9EnRvrxd8J2XPf2KsN8Xiaxo0asUicyxT6IyesdJOxXfb8kmzT5kQWI7+s/rnepRZOHTpk1rkhj6x84///zCqusRRdHPJLLChlCuipHIHMNfVSI78E/d7WtkHZ1q945OtXRTPUfpDRo0KEBk999/v+NoSy6+6ATm6UciS+7jKj9JInPs3SoS2bJN29VemonQkr0Xzd/gGOViij/mmGMCRLZixYpiKqqU8oii6GcSWWFDKFfFSGSO4Zcydu+a46Sdib9rxebGpGTPjujzjtU/nClTUMEbN25U73rXu5pE9sUvfrGgmu5Qq+gE5ulHIit0GOWmHInMMfRRmbzjpJ2J/6fG1i3yQA9pyaq9p3SpUTXbm+ypp55qkhj6x6655hpn/rAh2COKop9JZDa8XT0ZJDLHPq0akS3YsE3brIg9yLD+orRj9P7Tux0jXSzxV155ZYDIfv/73xdLwZA2RScwTz8SWchx/NlAgETmOBCqRmQ/XbpJM+QeBNapzpq3oTE8Pmw3hs3ft7I+G20eeuihTSJ73/vep7ZurfbebJvue82onw1D18t+cPh98TxIInPsk3CG7v/tOGkn4vedtoOw/HZ438+ct0HN7NmmPobNNlvml3WpT03vcqJT0YQuW7asSWJoVvzGN75RNBWt60MiG9Ug8iLUGK07twQCSWSOndSaoe+cZ+U4aeviR765Wbv/2P7TutQTb++ocR37So9AZJ2NLV+GLN9kXa+iCbz33nsDRHbrrbcWTUXr+pDISGTWgyqGQBJZDLCS3FolIvvMdKmmBWLuUp/x9YGNX/OOOkBTc0Mf2vLN25NAWZpnzjnnnACRzZo1qzS6J1WUREYiSxo7Np4jkdlAMUJGVYhs1Jtb1D+8KBPZIX/qUoOWBWtaR82Wa2XA419frfZqHx//+MebRPaJT3wiIjqq8xeJjESWZzSTyByjXxUi+/i0LvW+yTKRvb+jU616J1jLemr1O+qjmj3Q9uzoVLe/HiQ+x27ITPzMmTObJIb+sXPPPTeztPNMiERGIssz/khkjtGvApFhpCJ2ZdbZcvWijSKKx73So97XMuijs3Ftr45O9bdNQfIThZTsIvrDQGDeZ/To0SWzIJm6JDISWbLIsfMUicwOjlopuswf18twzOrZpnZHk2JjftjOgSo77NpBbn/TrKU4tWur+gC2j9HU5L44u6cMEMTSESMUPRLDefny5bGeL+vNJDISWZ6xSyJzjH7ZieyLs7A4cJjAdvz+9PRudf2S6CbCi17boD6tGSQCkrt8oVybc+wWJ+LfeecdhTljHpEddthhTtIpolASGYksz7gkkTlGX0cCuF7048dLNqkPRDQp7ju1S/W0Wdi+e+t29anGCEa5aRLyq7J8FVbv8EgM56uvvrroLramH4mMRGYtmBIIIpElAC3OI2Ulsoff0o9ShE3YxmXEG5uNoHh01Rb1yWn6mh2aLn+35h0jWUW+Cesp+onst7/9bZHVtaobiYxEZjWgYgojkcUELO7tZSQy9G29v9GvJS8M/NEpXeqkOfGG0J8zb706YLrcRImdprFvWUdnuckMK9x7RPbe975XbdlSnyW5SGQksrh5o837SWQ20RRklY3IXtuwTX20MUBDRzqd6v2TO9XcDW3aFENYbNmu1CEz9bUy4IQ9zqZ3l3NNwjfeeKNJYiCzr3/96yEEqv2TREYiyzPCSWSO0S8TkS3etF39L+z83KEnMazu8cs3ktU0pnRtVbuJox93podh+ZM7y0dmDzzwQIDIbrnlFseRVSzxJDISWZ4RSSJzjH5ZiGzO+q3qs43RhXJzIuzYZ0qXuvi1dLs9Y73GT2iWr2pg1dGlduvoVE+XrM/sggsuCBAZJkbX6SCRkcjyjHcSmWP0y0Bkz6/bqj48BSt37KwZSXr/8yw7e4pdsWijOgg1v4j09ujoUiPeTFbzc+xSUfwBBxzQJLKPfexj4j1VvkgiI5HlGd8kMsfoR2XWjpM2En/Pm1safV7yhOedxPbxad1q0cZ4/WJRCpw9b7363zOiyKxL7dHRqb7313Q1wCgdbP338ssvN0kM/WPf+c53bIkujRwSGYksz2AlkTlGv6hEhsWhzpu/IXLpqR26r2ssFvyig36rU+b0/H2O2U7CDOA1qbMxj+0fZ3arpQVezmro0KEBIsM2LnU7SGQksjxjnkTmGP1AxhxqSnOctFb8H9ZuVTu3ZNH3iUF3LAj87Fp3w+JPAJlpVv7wY4cRjQ+9VcymxpNOOilAZNhYs24HiYxElmfMk8gco+/PjMPfHSfdIv7td7ar8+avV3s1tmORV9rw67jni53qmQwGXZz6l57oASCTdyw0vGdHl/rKyz3qLYzlL9Cx++67N4ns0EMPLZBm2alCIiORZRdtrSmRyFoxsXrFTwzh71YTaiPsv/62Se3VZui7p99+U7vUftO6Mx0Gf868DWrfNvPXPP32frFLDV9htqpIG1hS//3cc881SQz9Y1dddVVqmWUUQCIjkeUZtyQyx+h7ma90dpx0Uzwy/qi5YX7dMMT+kJldChOjsz6uXLRRYVDJrpM0fWa+plkMBPlTASZPX3/99QEie/rpp7OGrRDpkchIZHkGIonMMfp+kgh/d5x0Q/yUzndUr4gJzk2dJq1T+0/vbgwAybPl7lcrtzT65XadFN13d0RBtoA58sgjm0T27ne/W23aFL0bQBY+zyMNEhmJLI+489IkkXlIODo3icJXm/CuOUqyReygv21S+0zV94mhKRH9Ybe9XozmOqz1+IWZ3erTMySdu9SHp3ZZnQrQApjhhVWrVjVJDM2Kxx13nOGT1buNREYiyzOqSWSO0fdISzo7Tjog/tz5G9Q+L7Y22f3TrG715T/3qOldxVoWCrXC78xbr/af5puo3dGp9uzoVE+sdjeKMgBamx+PPPJIgMgGDx7c5onq/k0iI5HlGd0kMsfoSwTmXXOcdIt41HK8tPed0qV6Te5UtywvRi2sRdm/X8CQe9QYsfLI3i92qhuWFafp7uKLLw4Q2YwZM3RmVP46iYxElmeQk8gco+8Rh3R2nHSL+D/3bFO7Te5UH5zSqS6Yv0EttLhSR0tiFi9g2sDpczeok+b0WJSaXtTnPve5JpHtt99+6QWWWAKJjESWZ/iSyByjLxGYd81x0qL4J1e/oyY5WKVDTKzCF+fOndskMfSPnX322RW2tr1pJDISWfsocXcHicwdtg3JHmlJZ8dJU7xDBIYNGxYgslGjRjlMrfiiSWQksjyjlETmGH2JwLxrjpOmeIcInHbaaQEiW7JkicPUii+aREYiyzNKSWSO0fdISzo7TpriHSKw9957N4nsC1/4gsOUyiGaREYiyzNSSWSO0ZcIzLvmOGmKd4TAxIkTmySG/rHvf//7jlIqj1gSGYksz2glkTlG3yMt6ew4aYp3hMCAAQMCRPbkk086Sqk8YklkJLI8o5VE5hh9icC8a46TpnhHCHzpS18KENmGDcXf/NMRFE2xJDISWTMYcvhCInMMukda0tlx0hTvAIF169YFSOyYY45xkEr5RJLISGR5Ri2JzDH6EoF51xwnTfEOEHj88ccDRDZo0CAHqZRPJImMRJZn1JLIHKPvkZZ0dpw0xTtAoG/fvgEimzZtmoNUyieSREYiyzNqSWSO0ZcIzLvmOGmKd4DAQQcd1CSyfffd10EK5RRJIiOR5Rm5JDLH6HukJZ0dJ03xlhFYsGBBk8Qw7P7MM8+0nEJ5xZHISGR5Ri+JzDH6EoF51xwnTfGWEfjlL38ZILJ77rnHcgrlFUciI5HlGb0kMsfoe6QlnR0nTfGWETj99NMDRLZ48WLLKZRXHImMRJZn9JLIHKMvEZh3zXHSFG8ZgX322adJZIcccohl6eUWRyIjkeUZwSQyx+h7pCWdHSdN8RYRmDJlSpPE0D92xRVXWJReflEkMhJZnlFMInOMvkRg3rU+r21Q/OSDwY0xd5q+6aabAkQ2duxYx5FTLvEkMhJZnhFLInOMvkdaPHeqImFw4IzuWJ7/6le/GiCynp5i7VYdyxgHN5PISGQOwspYJInMGKpkNxYp86YuO8k0To0MpIXmRO8DUuMRRIBERiILRkS2v0hkjvEmeewkjyJhMXrlFmPPjxs3rkliIDM0M/IIIkAiI5EFIyLbXyQyx3gXKfOmLjtJNY7bMbDDq43hjIEfPIIIbFvSrUBm7T7Bp8r5a8sLb6i3e+0grvB5zecfLadRJdeaRObYgSSPneRRFCzi9o9hB2iPyD784Q87jhiKLzoCJLLieYhE5tgnRcm8qcdOQj32FfOBGkuWLGmSGMjsjDPOcBwxFF90BEhkxfMQiax4PqFGBUJg5MiRASK7++67C6QdVckDARJZHqhHp0kii8aH/9YcgbPPPjtAZAsXLqw5IjSfRFa8GCCRFc8n1KhACOy3335NIjv44IMLpBlVyQsBElleyOvTJZHpseE/NUdgxowZTRJD/9jll19ec0RoPhAgkRUvDkhkxfMJNSoIAjfffHOAyJ544omCaEY18kSARJYn+nLaJDIZF14lAuprX/tagMi6u+Mta0UIq4kAiax4fiWRFc8n1KgACGzevFm95z3vaRLZV77ylQJoRRWKgACJrAheCOpAIgviwV9EoIHA+PHjmySG/rEbbriByBCBBgIksuIFAomseD6hRgVA4Oqrrw4QWUdHRwG0ogpFQIBEVgQvBHUgkQXx4C8i0EDgsMMOaxLZhz70IaJCBJoIkMiaUBTmC4msMK6gIkVBYPny5U0SQ7Pit771raKoRj0KgACJrABOCKlAIgsBwp9E4L777gsQ2S9+8QuCQgSaCJDImlAU5guJrDCuoCJFQeC8884LENmCBQuKohr1KAACJLICOCGkAoksBAh/EoH999+/SWQHHXRQIkDW3/iS6u4zkZ8KYtB53HjuR5borXD3EInMHbaUXEIEZs+e3SQx9I/17ds3kRXhDRf5W96Ismq4cGPNRK9L6odIZKkhpIAqITBkyJAAkf3617+ObR52S65aBk17zIiYRBb7dbHyAInMCowUUhUETjjhhACRdXZ2xjYtqg+FhGBGCGXFiUQW+3Wx8gCJzAqMFFIFBLZv3x4gsaOPPjqRWegfK2tGTL3TES2JLNErk/ohEllqCCmgKgg8++yzASIbOHBgItOiBgOQKNIRRdHxI5ElemVSP0QiSw0hBVQFgX79+gWIbPLkyYlMK3pmS/3ckSmJLNErk/ohEllqCCmgKggcccQRASKril20gwhUHQESWdU9TPuMEFi5cmWAxHr37m30HG8iAkQgfwRIZPn7gBoUAIGHHnooQGTDhw8vgFZUgQgQARMESGQmKPGeyiPQp0+fAJHNnz+/8jbTQCJQFQRIZFXxJO1IhQBW8fB/Ugnjw0SACGSKAIksU7iZWBERmDNnToDELrvssiKqSZ2IABHQIEAi0wDDy/VB4I477ggQ2WOPPVYf42kpEagAAiSyCjiRJqRD4JRTTgkQ2dq1a9MJ5NNEgAhkigCJLFO4mVgREfD3jeE7DyJABMqFAN/acvmL2lpGYMKECYHa2IABAyynQHFEgAi4RoBE5hphyi80Av379w8Q2cSJEwutL5UjAkSgFQESWSsmvFIjBNisWCNn09TKIkAiq6xraVg7BNasWROojbF/rB1i/J8IFBMBElkx/UKtMkBgzJgxASK76667MkiVSRABImAbARKZbUQprzQIhJsV582bVxrdqSgRIAI7ESCR7cSC32qGQJjIamY+zSUClUGARFYZV9IQIkAEiEA9ESCR1dPvtJoIEAEiUBkESGSVcSUNIQJEgAjUEwESWT39TquJABEgApVBgERWGVfSECJABIhAPREgkdXT77SaCBABIlAZBEhklXElDSECRIAI1BMBElk9/U6riQARIAKVQYBEVhlX0hAiQASIQD0RIJHV0++0mggQASJQGQRIZJVxJQ0hAkSACNQTARJZPf1Oq4kAESAClUGARFYZV9IQIkAEiEA9ESCR1dPvtJoIEAEiUBkESGSVcSUNIQJEgAjUEwESWT39TquJABEgApVBgERWGVfSECJABIhAPREgkdXT77SaCBABIlAZBEhklXElDSECRIAI1BMBElk9/U6riQARIAKVQYBEVhlX0hAiQASIQD0RIJHV0++0mggQASJQGQRIZJVxJQ0hAkSACNQTARJZPf1Oq4kAESAClUGARFYZV9IQIkAEiEA9ESCR1dPvtJoIEAEiUBkESGSVcSUNIQJEgAjUEwESWT39TquJABEgApVBgERWGVfSECJABIhAPREgkdXT77SaCBABIlAZBEhklXElDSECRIAI1BMBElk9/U6riQARIAKVQYBEVhlX0hAiQASIQD0RIJHV0++0mggQASJQGQRIZJVxJQ0hAkSACNQTARJZPf1Oq4kAESAClUGARFYZV9IQIkAEiEA9ESCR1dPvtJoIEAEiUBkESGSVcSUNIQJEgAjUEwESWT39TquJABEgApVBgERWGVfSECJABIhAcRAYdtdw9X+OPKr5Oe2bvdW11/VTkyd3qE2bNllV1JjItm3bpl57bYH6z8E3q7POPkf93385uqnghRf1UWvXrrOqGIURASJABIhAeREIE5mf1Hr/2+lq9uw/WzPOiMjWrFmjfvSjHzeJy68QvpPIrPmDgogAESAClUAgisjAG8ce93U1fcYMK7a2JbJVq95Wl17WV0tiJDIrfqAQIkAEiEClEGhHZOCO7158qVq1alVquyOJbOvWreqekaMiSYxEltoHFEAEiAARqBwCJkQG/njsscdT2x5JZMuXL1ffOv0MEllqmCmACBABIlBPBLZv3646OzvV8xMmKPSNgbz8n5/8ZIDauHFjKnAiiWzcuCcDCSJxDPK47fY71NKly9SWLVtSJc6HiQARIAJEoD4IvPLKq42+MT+RnXPOeeqtt95KBYKWyNCs+F9Dft5CZPfe+ysFhuVBBOqIAEqWGD58x53DGu37GFLsfym/dPRX1Dnnnt8YZjxmzGNq0aLFCu9SXY8NGzaoWbNmqREj7lHf6/vv6vQzziwFXl1d3QG9w37GQIXzL7hQ3XzLreq55/7Y6OfJI1/EaPLXX39dPfnkU2rgwBsbOkE3f0xCd/RFIWYRu4jhvI7169erH15zbUC/U079plq8eHEqlbREhgC8/sf9Awl+419PUPPnz0+VYPhh03ZUv2Nsf9dVbfEC2k4L8hBYF1zYp/ES5JHZLViwQJ1w4skttuEa/rN9SDV74PDIo2OcFIqkmNL52MTWzZu3qEmTJqlLLr2sBTOT+EDGAp2WL389lb227TKxPck9IG68O9dcc11gmo4JVrjHw2vFihVJkk/8jOdnEK5/epGp3oiPKVOnZlJwefvtt9X9DzyoTj7l1EQxCV0R07A5ywNkD0INY4p4SXNoiQzzwjCs3p8gSiAYim/zkF5Of5pZfNdlcq6ITLIJL++oUfc6n4+HQEKtWtIB11zUuHVEBuKcN2+ezXBqyJJiSufjqMSB1Zy//CUxgYUxRuZ4661D1OrVq6OS1f5nyy5tAin/QO1g6tRpLflGGAfT38Dr5ptvUa4JDZn5hBdeEPtvTHX13weSQNy4qKEhdoYP/2+Fmr8/zaTf0WcF27MkNCmOMyUyVE9tV0slo5I6JelzukwuSyLzdEdgzXrpJScvAfIp+K9v38u1LwEKKzaGw/rzRB2RwWaU2ru7u/23p/4uxZTOx7rEUKt44IEHE5XMPV/qzmeedXYjo9Olrbtuwy6d7LTX161b1yDpJDUZHU7e9eNPOFE99dTTTmo6qCVfddXV2vfB0yHuGUTz0P88bE1nkCJqe9Jgibi6SffjPXzjjTfShoHR87/45d0teKedT6atkaHzDZ1wfqPjZgYmVkkvpz/NLL7r7MqDyGAvamdpHavDfsqUKW0z52eeeVb3eKLrUUQGe9YYL+QAABhSSURBVEePvs8qcUsxpfOxZFAcEkMmi2Zi74P+MZPSMp6L6+O0dkm22ri2ZOnShv0m76rXh+jhFV4lKErGjTf9TPX09NhQuRFv06ZNV/BDVJref2E/h/vMvPvC5zvvHJZ6OaY48Yj0va4LD+M4NgITFzVJv9Ok/ADX0hxaIkPnGzrh/I6JkxmYKnXf/Q80MwEPeJOz5BwQAGoUJs/777ntttvV5s2bW1SWiAwlTrx8/ufjfA93dvvx9X/HtIeFCxe16JTmApoPbrppUMCnwPGr/+/YwDWsh4Y+UluHFLh+W+E3jGaydaTN8EEw0Mmvo/cdfRIgXkxNQQajOzBYAJlCVGkfPl6yZIlORMv1tHa1CLRwAX2qUVN08L4AAwy9XrN2rZhJokly5cqVauzYcY13y8NaOmOgQNruDWTUKKzpfIx04ecR94xs9BnrRmfj+p9fflndcONNkYXDu+8eERkrUW7AOyvVYPzYmOiK4e3Q9Wc/GxRZ0AImwMYlmUn5QemJLMqJUf9l8VJLRGZjhA0yQGSE9/5qdGSJcPDgW6y2XUvzAu8a/t8KBRT/iwFiQ9DbOqTA9aeH7/9xxfetNVuniQ00vUKXsH7IkEeOHBWb4JEhgKTRnBiWid9xfJzGLlu+9MtBQSuKxNBctWzZsliZIkht5sxZkf2SGJ2XpqAVVVBBwQ4jAOP2GcFOXZM9Ygcy45ID8gmQoBQ3uAZd8W7FXYAX4x+w0IWu5QBkFre1wB8X7b5L+QGJzDe5znaN0RWR+R2Nzlu8mFKw2iYUzKAPp4PhuNJ1m4M+pMAN64HftpoY02T4KI2GdUNGNHbcOIVMNumhy/Tj+DiNXUn11j2HWpEu40YGiwEEafACUcFeYB/2B34nreWgBqwjX9T20vQPQ+chPx8q6hu39g3cnx4/Xms/8oykg4Ygu10BC/rabhHyYknKD0hkJScyOBcvgI7MMPk8qgnLC452ZzR1Xf4fVwResm/2/lZjYrs0HN/moA8pcKXMCSVBG02MSTN8NBUN+s/BAYygp60Ckq4mYOrjpHa1i424/yMedUvXoeZpawoHiBAFCInMUADA4Ic4B5rX0Awoxd6Anw600v8W9S7/fOhtxu+yjnCBBZo849YYdTi9+eZK7Vq6P+7/k1Q1X12aUn5AIqsAkcHhUp8kXrg+fS5u9C3ogsL0OpoK8fL7X2KUQDFBES8f+sX8/+G7rUEfUuCG0/J+o5Sftg8kaYaPdEHgni7eGbVWG4fUR4k0TAsNSe2yobtfhrQ6A+xwUYqPIrNLL/2ewnwq0wN+lEgRi6JjcXRbh46ETOdpIk7Q5OzFn/+ctCYaZVsUmaUlGCldKT9Im07ugz0kQ02uZfFSZ9G06NmKUq60koqNSeiQjVK//4XA94cffsRLXmxetDXoQwrcK6/6QWPofVgn/EZpP00tNGlsSIUJG32iTZCVUtKoURQwXn21/WCXpHb500/7XUfGSWpIprpE1XJMF5zFFA/02YXjzVYrgN8WNNthsn84Lfw2abKXCp141lUNCbrrWgtMC1l++9t9l/IDEllFamRw/vjxvxWDH4Sa5sASNmd8+6yA7HDmKWXiuMfGoA8pcNFch8nQUn8FMpc0NifN8CUMbBOZ5AtkUljmqN2R1K52cuP8r8tk4zSbxUnPu1fyDXBDDd5kbqtUgMDzGBGYptDk6Rc+o69Nqt23a2HRFRRcLR7g6Q0MdKMjbbXMeGlJ+RxiO82hrZFh985wNRz9B7qhqGmUSPJsFi91ljUyYCClh5ctTaYOudIABvSXod/MO3QvkGn/jSdHOuuIDH0Wug7tNE2MSWNDl1naHMHlrTXnzfXBIgNDh95mtFtuUrsknyS5hpoGVpVATPo/rjNZ6Iq0pRVpkEeBpKIOZNJSa4dpU1+UbN1/On3RL41VP3SHLgZdFxSgjzSqGX621TLj2Szlc86IzEViniE2zlm81BIGtkvofizQhu/PILzvaYhM1/+Fof/hA7UCL03vjBoTAjzNEUVkUR3wSZsYk8aGro8szhD5NDi1ezapXe3kmv6vq2VgbiIKQq4PaVAS4rRdAVtXC7Y1iEdnN5qLMccUU1zwDvsLjrpnpBHEtlpGdGl610H4UhdEuPXGuz/pGev1osvEy2NwTusLbY1Mqv5JmV9SY9I+l8VLnTWRoc/K71x8R4kTteOkhxQ0upKoLqMy7YfQ6RhFZHhG1zmetIkxaWzoRi3CB8DARROUDjPpelK7JFlJruF9CLfSIEbh3ywOXatBu21AdAVEfx9xFvq3SwOFOmTo4TygXXNkO7lx/tc1HdvESlo1Ku3yh1oik9pLbY3eigOs7t4sXuosiUxXc0LfFkqUSQ5d84au9KMrkZn2Q+h0bEdkeO4Pzz0nZpJJRpSliQ1dXwoyFwwW+OvChbEntupwiXs9jV1x05LulwpaNgYjSWnprkmxBHLFu6o7UAAPk4PtWoYu7TjXpQweeqNZNKtCFFZfAXGG8dLlGXHs8+6VCDttrVMkMmlhWZdNap6Bcc5ZvNRZEpluaHCaZhtdDSuq81YqkSGjaNcPEeU7KfMJvxgobdsacpwmNlCgwOiw8Ivs/33e+ReoRx55tLGsUppJv1GYSf+lsUuSF+earraatiQdRwfci+Y6ZHp+f+C7rsaApeekOZrtanFx9bJxv842tI5ldej8bBsvqd8ec/xAckkOkcik0nGaDDWJYu2eyeKlzorIdKs+gEDgi6SHVLtoV8OTJk4jo0jjfxMig43oi5OWckITY5wBF2ljQ+ePcOaJ31jFAhkl+hcxH8dlyTmtXUnjCM+hcAvSCmMA26V1StOkFfVs3FqLTm/stYhCS5EOqTsHeUCaroUk9mVR88b8P8wD9McTbE062buFyF56aXbLYsFpS+RJwGz3TBYvtWsiQ2m+o+PFFrw956IpK+kWJ7r+BJNRiFKHs65frZ2f8L8pkeFeqRAFPOI0MdqIDZSOpakBnm90Z6xfh7UakRmAmG0Smw27TPwl3aMbMAGdsjy8UZ9h/MM1fE8nHfFhc0c0vRfpkJpA82gJ0/UpRjXfJsFRN3cNi0xjvc04tbMGkeFlW7p0mRo27C5xIUkXs8mTGO5/JouX2jaRodqOBTuRSf5q9H2RK32nXSVBGuFlWiCRnkXGYTKZ0+8j73scIrPRxGgrNrA/U9Tq9eHMVPqN2iS2H8FK+HEXd/Xw88627PLkxTnrhoU/8cTYOGJS3yv1rwB3bAKMdyt86PTOmoDDekm/Jf9iLlralW6ktKKuSfkeMMZ7bPNAQeKFFyZG7kJg6qdddEp7LyWW/S9aFRxgSk7XlcqSgt8OGw8j2+e4TWmSfVKtynTQhq42l3SWfxwigy1pmxhtxgawwAK42LonrZ9RW8MO0Ul3PLZplxQzUdd0/Te2M7coHbz/JBziElkeenv6S2dd35TOLkmGrWs68neF2dy587S7HcDXJoeWyND272pXVhPF2t0jBXMViCzp7sF+vKTBOsiE49SopDllkBE1UMSvg/97XCLDs7rBL+inwSCWqMNFbKDVAmsMYs4SChppSA2EhmakuAVEF3ZF4ej/T1eoc5W5+dMOf5dw0GX4WWfKYV1Nf8etaZrKTXJfHpihyRj7QobfK/ja5BCJrM93L4m14Z9JQrbvkYK5zESGzDFJ5ibhikwHzYj+oIjbx6Ub8Zhkln8SIgNxYDUDvw3ed6wuEdX35Do2kPZf//rXRvMwRjB6esU9o4YcZ2qFa7ukWPKukcg8JNyc60pkaF7ESieXXHqZ+B6lIjK8kKiRJdlgzo2bW6Vm8VLrXt64GZbufpDXNdf2a9Q+0vafeAghk5Vm58clIJ2cuIQIvZIQGZ7DKMBzzj2/JcAx/DpqC48sYsPDG2dkQl6/J+bghAsROv/jOmrgixYt9ovTfs/aLr8iunehrDUy3XB9v81Zfq8jkYHEsESdboNPvB+picx7+dhHFlxXDpkU+kuw9Izug76kqOYnDDt97bUFqTYe1L1k6F+SRtslaRKU5pQhLuI0UULPpESGZ5M0MeaZ4UNn9HeA2DCUWPKF9255Z9PdsfO0C1MSTj7l1JZCRdZEFjfDxyA2rG/oYe2dTTNI3Xtm+zoydYyk9PTzzromU9vp++VlVWjhqMUcB3uYDodFYKJ5TreleNJ+En/ASd8l0kBmCoKLe+jmlMUd9CHpZNoMjJph3CbGPDP8MMaIg+XLX28M8ogqeWLbD9wbdeRpl67fBM3hWR7oV8QcMC+j9866eWEYyQgy8O7zzlmulmGKj+TfdvM+TWXHuQ8E4+HkP8eZy9kuPafzyPAigY2RWfsNQFOOTSPaGWnyv+R008zRRD7ukUompkTmT2PZsmXabeFRGkcTmo0DLzmaEP2+c/U9Tg0vDZEBl7hNjFnERhJ/RcWBSeEgT7uKQgi6hZ11xKQjPm9T2SR+dPWM9J5kvQQYbMOUinC+YVuPTFb2kLbWSLOygwvHZ/FS2yIy2I8daEFa4QDBb0z2tUFmuqZAKc201+L0uUkvaNxCB/rEpKWJ0IcWxi6L2Ega04gD+DuMv8kcvzzt0i31FN4OKCkups9Ji2ADS12fFwrnUpOd7SWXTPWPuk/aOgu2mexVFyU3zn9oAZG2vLGJlzTVAO828q+kR8vKHhAkDd9GOzPam4tyZPFS2yQy4KbLxBCscVaukHyAF1barymcYdr6HSfwbBAZXjBpLyzYE96rKW5s4MXCVBM8972+/97o+8RgJ+jt4sCGohg0E/ZFu2a6uHbZ1h36hXVO0kKRRi/dtJCoFiNp6SfEL/oxXR8PPvhQY0AXBs5hhGrU2py61VMQ9+2anW3ZoetO0DXdJklXWm0l7Qr/IpFBOa5+b69p0e9szEXSDQTBunVx5xZ5snXD5cMZj83fJstdQT8bRAY5sFFa7w+1GQwK8Y64Gb6utoF3wMWhG7AAvaOOuHZFyUryHwp20ojMOM3MSdL1npFK8ojndv1IcWtxXnppz5Kf8e5jpRdUFsKHdD/sM13IICwvyW/dxPd2haw4aUn+iNtCE05PS2RSKUZXfQ8LzeJ3Fi+17RoZcEHJCqUzKUNA0Jp0+kv4Sm3OSAOjTrHEWJoPli4L95tCV9NBJLaIDHabNDEmiQ3pGZf9KFJ67V7mJM9IsZL0mm6LjzjNzEnTxnO6Ebntuj10tQzXeusGyET5WXpX8B6n2X3CFHNdq06c1heTtKR8FbGd5tASmYvE0igafjaLl1rCwEZTCkpe2LIAZBD+oMSGdOMcuiWlbJXkEOC6Zj2TTTellzPqZY6y3aSJMUlsSAW3JHPmonT3/yfp2G4hW+mZpDj6dTH9nlVGJ+mDtFHIC78v+G1SI5SaRW1n0GG9pWXioC/eB92RlKx18uJc1w2qspWPeLpIzcNpWz+0RCZ1PGa9ZYNnuHTO4qV2RWSwBwErbVmCQDedV+ThYnuRX0+u/6wbSGIS5DaJDDpFNTFi9fwksSE1d8AXcefM+THTfdc1kbVrvklil06HpNd1sYY93JI2i5voontfTEZ7Qr5O73D/qokuJvdI4wwQT+1aMVBQkxY0AOlGLQJgolPUPSgojB59n1hQMCmsRskO/yflB1HkHn5e+q0lMqlanGXpT1LWfy2Ll9olkcEW3WRfBDyCCsFlckilTdu1Cd3QfpNmDylw08YSOvelvkYUDkCuwND/aZeezj7UwLErtM1DKnUDx3Y18Sxivp2dyGileX3QH03mpjHbLh3//1E7Ipg2xetaLRBD6Le2eQCDsePGBeLPi0VsHgtdog7dYKC0A8Ki0tT13UujgqPkmPwn5QckMl+G1S6zMgHZf49rItNlCgh60xdMV/Jz0f4v9cNB13Z9FFLgpvUVsEO/n5dBtDubpKezz2YGAr2lZlqTmkURiAzvB4hd6jNFzEaNHvS/W6bfMcoPpACiDPsYK+RgYq3pAd1Qs2mRc1nfxohiUznt7tNtzGr6TutiBHqnGRCm0xtNitKUEKSXlmCkNKX8IG06rJFJSP/9mmsiQzK6JhMEkUkTo7QLNJ416TeIMF38Szcysl3tTwpcE2IRlfBdjJrOAAz8H5P0UCjQzfXDaElMaE5zRGXKJjXwohAZahy6/ioQHDbntXFE4QVii7t7elTf9ICfDlQ9PT2p1Y6KSZPamKeArr8KMT3k50OtNeNGkZhJ/uPpG+cs5QckMl+GZZJZxQE8CyKDPrpdkRG0UU0nKLlJkxfbtcPHwcB/L9KT2u+hZ1RfkhS4tnyla2L0kxi+m6YXJc9bVizJrt0oBNx88y0BcvV0NNmaBn4oCpFBFzTFonbg2eA/o+bxu9/9PnLOlD+upO9YRBs1V6kmhrTwH+Ix7qGrLUEmNlHFZqpJD8wDk5q1IRvv5JIlS2KJjopFjKhFTKU5sOq8rp/eRZO6p6uUH5DIKkBkUX0AqO2gzVw6pL4WvDS65XokGXGv6QZ9RDWNSYFrSizt9ENmZtLEaJoeahtR0yOALzJq7EsGLLCPku7AsG/sDD3whhu1K3zHaY4rEpHB5qjaB3C65prrGrXYOP1mqIWhv0a3rQfkIhNPumtyO/96E+Hj7EaB9xcxg2ehX/gDMsZqSXEPF7pCBxTE0K+uW/sTMYkWnTh+i2OblB+QyHyBY5pZmYKeVY0M+qC0hlJb+CXAb2QIUi1AGt6Ll8blnBPdoAjoqWvOlALXpq/aZajQLU56IEcs9qyrDYR9hAwBneLebgj4rssk/M/iHmRwphmGRGTIdFCI8NK2cb7v/gdMXxG1ZOnSRtp+u/zfgSFqOs9PmKAwD02yFeS1cuVKNXbsuLY7caO5C/5Oc5gUfkBKKCBhtCNGmYaPODpDTpLaI9LEcw888GBkLGJXAuy0oNMVctCsioIX5pVGxWbcmAzjYvJbyg9IZBUhMgSAtMallymEmxhRE0DJ1PvfO5sMhzcJtqh7dIMidIM+pMCNQyxRunj/RTXDAJu46SEDQSkbROFha/OMjHLSpElixu7ZFD5LRGZTJ08W0olzoJ9F17foyfTOyCj9pH/6GWca44umzHXr1sVRTXsv/BunsHLaN3s3CwvYxsmkkIN7kEZSEvOUB2kiFqMIyMMXZ7+uKOSYxnCSmPR0jHOW8oO060lqB3tIq13nsTeODiDppY6bWelke9ezrJEhzajO6HCbta6JL6qvyrMr7Vm3Jpxu0IcUuLZ9hcwiqokxaXrYggU1Yn9GkeY7Mrfr+v0oUV+MFPNpdNE9G5fIEE9oihs16l6jDF6Xru46MvDHH/9122HrceMaBIG+PNOMXqefdB0y0/YThu2ZO3deZO1X0sP0GgrAaQczhfXV/ZamCyGvTXOQyCLQy5rIoEpUZ7Q36RSZtjTowvZWCzpodOnjpZGINAsig67oN9F1ticlMshFcxiGnKNfLGmmh8wYzTqQIzWv6bD2Xy8ykXk4oT8XTYmmGWjUfSB9DJBZsWKFHwbr320XVlDwgUwXB5r2sRCxrj8uCk/pv97/drqa8MIL1gsJOtsR+9JuBCSyCjUtwvlwdNRgA8ypwerRaDIIB6aLuWO6gNTVCKVBH1kRGXTFCyGRTRoi82MAEl+0aHHDRzffcmujhIymnLAv0GR25VU/UOhvwkKsUj+LX67J96ITmWcDajrYAb1df0wYM+83MmmMSnRNYJ6+OHuFlaQ6g3RBYJh6APtdH+gzRz6BZk4PN9MzdMUuD2jabjc527YdUpeIjQK4tkaGZi68/H5wbCRoGxjKIwJEoLgIgMBB5CB0EHu4T8zrM0P/FzLmdludZGEpdEbLyJgxjzU2qpX6mUC2mDaB2gVW6JFWs89CVxAwhuGjjwkFK0lXFLRAXCNG3NMo6KFWl9chrSBiY68zLZGh5CnNUcLijviPBxEgAkSACBCBdgighrp69erGKiHSijA2Wku0RAblpCYhVEvRqY6RSiS0di7k/0SACBCBeiJg2hSum7YTB7VIItOtGO1vbsT3Io1mjGM87yUCRIAIEAE3CJgQGQZnJZ3c7tc6kshQ45J2iiaR+SHkdyJABIgAEQgj0I7IMCgL8z9tHJFEhgQwi77dZEfWyGy4gjKIABEgAtVBIIrIMOwfe17aOtoSGRLCbHrdAqFsWrTlCsohAkSACFQHgTCRYfQkpghhlGectSxNEDEiMgjy5obcdtvtjSVm/MulsEZmAjXvIQJEgAgQARcIGBOZi8QpkwgQASJABIhAWgRIZGkR5PNEgAgQASKQKwIkslzhZ+JEgAgQASKQFgESWVoE+TwRIAJEgAjkigCJLFf4mTgRIAJEgAikRYBElhZBPk8EiAARIAK5IvD/AbWiSVA+IFi0AAAAAElFTkSuQmCC;movable=0;resizable=0;rotatable=0;deletable=0;editable=0;locked=1;connectable=0;" vertex="1" parent="MDC6gTbUR9rk1_IR8C2i-99">
          <mxGeometry x="45" y="2.680000000000007" width="190" height="110.32" as="geometry" />
        </mxCell>
        <mxCell id="MDC6gTbUR9rk1_IR8C2i-111" value="&lt;span&gt;Set Secondary Database&lt;/span&gt;" style="rounded=1;whiteSpace=wrap;html=1;shadow=0;strokeWidth=2;fillColor=none;fontSize=11;fontColor=#66B2FF;align=center;strokeColor=#66B2FF;dashed=1;verticalAlign=top;" vertex="1" parent="MDC6gTbUR9rk1_IR8C2i-140">
          <mxGeometry x="3.5" y="323.5" width="277" height="99.5" as="geometry" />
        </mxCell>
        <mxCell id="MDC6gTbUR9rk1_IR8C2i-112" value="" style="group" vertex="1" connectable="0" parent="MDC6gTbUR9rk1_IR8C2i-140">
          <mxGeometry x="12" y="349" width="260" height="62" as="geometry" />
        </mxCell>
        <mxCell id="MDC6gTbUR9rk1_IR8C2i-113" value="" style="rounded=1;whiteSpace=wrap;html=1;shadow=0;strokeWidth=2;fillColor=none;fontSize=12;fontColor=#000000;align=center;strokeColor=#3399FF;arcSize=9;" vertex="1" parent="MDC6gTbUR9rk1_IR8C2i-112">
          <mxGeometry width="260" height="62" as="geometry" />
        </mxCell>
        <mxCell id="MDC6gTbUR9rk1_IR8C2i-114" value="Get Avaliable Secondary Terms list from database and set on Transloco Terms list" style="text;html=1;strokeColor=none;fillColor=none;align=left;verticalAlign=top;whiteSpace=wrap;rounded=0;fontSize=12;fontFamily=Helvetica;fontColor=default;" vertex="1" parent="MDC6gTbUR9rk1_IR8C2i-112">
          <mxGeometry x="56" y="8" width="181" height="30" as="geometry" />
        </mxCell>
        <mxCell id="MDC6gTbUR9rk1_IR8C2i-115" value="" style="image;html=1;image=img/lib/clip_art/computers/Database_128x128.png;pointerEvents=0;align=center;verticalAlign=top;fontFamily=Helvetica;fontSize=12;fontColor=default;fillColor=none;gradientColor=none;" vertex="1" parent="MDC6gTbUR9rk1_IR8C2i-112">
          <mxGeometry x="7" y="10.5" width="44" height="44" as="geometry" />
        </mxCell>
        <mxCell id="MDC6gTbUR9rk1_IR8C2i-118" value="" style="group" vertex="1" connectable="0" parent="MDC6gTbUR9rk1_IR8C2i-140">
          <mxGeometry x="3.5" y="128" width="277" height="179.5" as="geometry" />
        </mxCell>
        <mxCell id="23046e2b9bb16c14-56" value="&lt;span&gt;Set Principals Database&lt;/span&gt;" style="rounded=1;whiteSpace=wrap;html=1;shadow=0;strokeWidth=2;fillColor=none;fontSize=11;fontColor=#66B2FF;align=center;strokeColor=#66B2FF;dashed=1;verticalAlign=top;" parent="MDC6gTbUR9rk1_IR8C2i-118" vertex="1">
          <mxGeometry width="277" height="179.5" as="geometry" />
        </mxCell>
        <mxCell id="MDC6gTbUR9rk1_IR8C2i-107" value="" style="group" vertex="1" connectable="0" parent="MDC6gTbUR9rk1_IR8C2i-118">
          <mxGeometry x="8.5" y="101" width="260" height="62" as="geometry" />
        </mxCell>
        <mxCell id="MDC6gTbUR9rk1_IR8C2i-108" value="" style="rounded=1;whiteSpace=wrap;html=1;shadow=0;strokeWidth=2;fillColor=none;fontSize=12;fontColor=#000000;align=center;strokeColor=#3399FF;arcSize=9;" vertex="1" parent="MDC6gTbUR9rk1_IR8C2i-107">
          <mxGeometry width="260" height="62" as="geometry" />
        </mxCell>
        <mxCell id="MDC6gTbUR9rk1_IR8C2i-109" value="Get Avaliable Principal Terms list from database and set on Transloco Terms list" style="text;html=1;strokeColor=none;fillColor=none;align=left;verticalAlign=top;whiteSpace=wrap;rounded=0;fontSize=12;fontFamily=Helvetica;fontColor=default;" vertex="1" parent="MDC6gTbUR9rk1_IR8C2i-107">
          <mxGeometry x="56" y="8" width="181" height="30" as="geometry" />
        </mxCell>
        <mxCell id="MDC6gTbUR9rk1_IR8C2i-110" value="" style="image;html=1;image=img/lib/clip_art/computers/Database_128x128.png;pointerEvents=0;align=center;verticalAlign=top;fontFamily=Helvetica;fontSize=12;fontColor=default;fillColor=none;gradientColor=none;" vertex="1" parent="MDC6gTbUR9rk1_IR8C2i-107">
          <mxGeometry x="7" y="10.5" width="44" height="44" as="geometry" />
        </mxCell>
        <mxCell id="MDC6gTbUR9rk1_IR8C2i-98" value="" style="group" vertex="1" connectable="0" parent="MDC6gTbUR9rk1_IR8C2i-118">
          <mxGeometry x="9.5" y="25" width="260" height="62" as="geometry" />
        </mxCell>
        <mxCell id="MDC6gTbUR9rk1_IR8C2i-83" value="" style="rounded=1;whiteSpace=wrap;html=1;shadow=0;strokeWidth=2;fillColor=none;fontSize=12;fontColor=#000000;align=center;strokeColor=#3399FF;arcSize=9;" vertex="1" parent="MDC6gTbUR9rk1_IR8C2i-98">
          <mxGeometry width="260" height="62" as="geometry" />
        </mxCell>
        <mxCell id="MDC6gTbUR9rk1_IR8C2i-89" value="Get Avaliable Language list from database and set on Transloco Language list" style="text;html=1;strokeColor=none;fillColor=none;align=left;verticalAlign=top;whiteSpace=wrap;rounded=0;fontSize=12;fontFamily=Helvetica;fontColor=default;" vertex="1" parent="MDC6gTbUR9rk1_IR8C2i-98">
          <mxGeometry x="56" y="8" width="181" height="30" as="geometry" />
        </mxCell>
        <mxCell id="MDC6gTbUR9rk1_IR8C2i-86" value="" style="image;html=1;image=img/lib/clip_art/computers/Database_128x128.png;pointerEvents=0;align=center;verticalAlign=top;fontFamily=Helvetica;fontSize=12;fontColor=default;fillColor=none;gradientColor=none;" vertex="1" parent="MDC6gTbUR9rk1_IR8C2i-98">
          <mxGeometry x="7" y="10.5" width="44" height="44" as="geometry" />
        </mxCell>
      </root>
    </mxGraphModel>
  </diagram>
</mxfile>
